<svg xmlns="http://www.w3.org/2000/svg" xmlns:xlink="http://www.w3.org/1999/xlink" width="50" zoomAndPan="magnify" viewBox="0 0 37.5 37.499999" height="50" preserveAspectRatio="xMidYMid meet" version="1.0"><defs><clipPath id="de9417a091"><path d="M 0.0429688 0 L 37.007812 0 L 37.007812 36 L 0.0429688 36 Z M 0.0429688 0 " clip-rule="nonzero"/></clipPath></defs><g clip-path="url(#de9417a091)"><path fill="#ffffff" d="M 23.398438 0.148438 C 22.390625 1.117188 22.023438 2.65625 22.695312 3.910156 C 23.242188 4.9375 24.382812 5.515625 24.109375 6.847656 C 24.007812 7.34375 23.746094 7.851562 23.398438 8.222656 C 22.933594 8.71875 23.683594 9.46875 24.148438 8.96875 C 25.09375 7.964844 25.519531 6.445312 24.929688 5.160156 C 24.453125 4.128906 23.195312 3.507812 23.421875 2.226562 C 23.507812 1.734375 23.789062 1.242188 24.148438 0.898438 C 24.640625 0.425781 23.890625 -0.320312 23.398438 0.148438 Z M 19.679688 0.148438 C 18.671875 1.117188 18.304688 2.65625 18.976562 3.910156 C 19.527344 4.9375 20.664062 5.515625 20.390625 6.847656 C 20.292969 7.34375 20.027344 7.851562 19.679688 8.222656 C 19.21875 8.71875 19.964844 9.46875 20.429688 8.96875 C 21.375 7.964844 21.800781 6.445312 21.210938 5.160156 C 20.738281 4.128906 19.476562 3.507812 19.703125 2.226562 C 19.789062 1.734375 20.070312 1.242188 20.429688 0.898438 C 20.921875 0.425781 20.171875 -0.320312 19.679688 0.148438 Z M 15.964844 0.148438 C 14.957031 1.117188 14.585938 2.65625 15.257812 3.910156 C 15.808594 4.9375 16.945312 5.515625 16.675781 6.847656 C 16.574219 7.34375 16.3125 7.851562 15.964844 8.222656 C 15.5 8.71875 16.246094 9.46875 16.710938 8.96875 C 17.65625 7.964844 18.082031 6.445312 17.492188 5.160156 C 17.019531 4.128906 15.761719 3.507812 15.984375 2.226562 C 16.070312 1.734375 16.351562 1.242188 16.710938 0.898438 C 17.203125 0.425781 16.453125 -0.320312 15.964844 0.148438 Z M 29.488281 13.792969 C 27.839844 14.945312 26.191406 16.105469 24.542969 17.261719 C 25.273438 17.386719 26.011719 17.25 26.703125 16.707031 C 28.078125 15.617188 31.003906 14.804688 33.007812 15.371094 C 33.789062 15.589844 34.375 16.007812 34.730469 16.585938 C 35.808594 16.1875 36.101562 15.859375 36.101562 15.753906 C 36.101562 15.570312 35.277344 14.757812 31.257812 14.058594 C 30.699219 13.960938 30.105469 13.875 29.488281 13.792969 Z M 36.042969 17.164062 C 36.011719 17.183594 35.976562 17.199219 35.945312 17.21875 C 35.925781 17.226562 35.910156 17.238281 35.886719 17.246094 C 35.832031 17.273438 35.773438 17.300781 35.714844 17.328125 C 35.703125 17.335938 35.6875 17.339844 35.675781 17.347656 C 35.621094 17.371094 35.566406 17.394531 35.511719 17.421875 C 35.484375 17.433594 35.457031 17.441406 35.429688 17.453125 C 35.382812 17.472656 35.34375 17.488281 35.296875 17.507812 C 35.265625 17.519531 35.230469 17.535156 35.195312 17.546875 C 35.152344 17.5625 35.109375 17.578125 35.0625 17.59375 C 35.027344 17.609375 34.988281 17.621094 34.949219 17.636719 C 34.90625 17.652344 34.863281 17.667969 34.816406 17.683594 C 34.773438 17.695312 34.730469 17.710938 34.691406 17.722656 C 34.644531 17.738281 34.597656 17.753906 34.546875 17.769531 C 34.503906 17.78125 34.457031 17.796875 34.414062 17.808594 C 34.363281 17.824219 34.3125 17.839844 34.257812 17.855469 C 34.210938 17.871094 34.164062 17.882812 34.117188 17.898438 C 34.0625 17.910156 34.007812 17.925781 33.949219 17.941406 C 33.902344 17.957031 33.851562 17.96875 33.796875 17.984375 C 33.738281 18 33.683594 18.011719 33.621094 18.027344 C 33.566406 18.039062 33.515625 18.054688 33.460938 18.070312 C 33.398438 18.082031 33.332031 18.097656 33.269531 18.113281 C 33.214844 18.125 33.160156 18.140625 33.101562 18.152344 C 33.035156 18.167969 32.964844 18.183594 32.890625 18.199219 C 32.835938 18.210938 32.78125 18.222656 32.722656 18.234375 C 32.644531 18.25 32.566406 18.269531 32.488281 18.285156 C 32.429688 18.296875 32.375 18.308594 32.316406 18.320312 C 32.226562 18.335938 32.136719 18.355469 32.042969 18.371094 C 31.992188 18.382812 31.941406 18.390625 31.890625 18.402344 C 31.742188 18.429688 31.59375 18.457031 31.4375 18.484375 C 28.21875 19.042969 24.011719 19.363281 19.503906 19.402344 C 19.207031 19.40625 18.902344 19.40625 18.601562 19.40625 C 18.296875 19.40625 17.996094 19.40625 17.695312 19.402344 C 13.191406 19.363281 8.980469 19.042969 5.761719 18.484375 C 5.609375 18.457031 5.457031 18.429688 5.3125 18.402344 C 5.257812 18.390625 5.210938 18.382812 5.160156 18.375 C 5.066406 18.355469 4.972656 18.335938 4.886719 18.320312 C 4.828125 18.308594 4.769531 18.296875 4.714844 18.285156 C 4.636719 18.269531 4.558594 18.25 4.480469 18.234375 C 4.421875 18.222656 4.367188 18.210938 4.3125 18.199219 C 4.238281 18.183594 4.167969 18.167969 4.097656 18.152344 C 4.042969 18.140625 3.988281 18.125 3.933594 18.113281 C 3.867188 18.097656 3.804688 18.082031 3.742188 18.070312 C 3.6875 18.054688 3.632812 18.039062 3.582031 18.027344 C 3.519531 18.011719 3.460938 18 3.402344 17.984375 C 3.351562 17.96875 3.300781 17.957031 3.25 17.941406 C 3.195312 17.925781 3.140625 17.910156 3.085938 17.898438 C 3.039062 17.882812 2.988281 17.871094 2.941406 17.855469 C 2.890625 17.839844 2.839844 17.824219 2.789062 17.808594 C 2.742188 17.796875 2.699219 17.78125 2.65625 17.769531 C 2.605469 17.753906 2.558594 17.738281 2.511719 17.722656 C 2.46875 17.710938 2.425781 17.695312 2.386719 17.683594 C 2.339844 17.667969 2.296875 17.652344 2.25 17.636719 C 2.214844 17.621094 2.175781 17.609375 2.136719 17.59375 C 2.09375 17.578125 2.050781 17.5625 2.007812 17.546875 C 1.972656 17.535156 1.9375 17.519531 1.90625 17.507812 C 1.863281 17.488281 1.820312 17.472656 1.777344 17.457031 C 1.75 17.445312 1.71875 17.433594 1.691406 17.421875 C 1.636719 17.398438 1.585938 17.375 1.535156 17.351562 C 1.515625 17.34375 1.496094 17.335938 1.476562 17.324219 C 1.421875 17.296875 1.367188 17.273438 1.316406 17.246094 C 1.292969 17.238281 1.273438 17.226562 1.253906 17.214844 C 1.222656 17.199219 1.191406 17.183594 1.160156 17.164062 C 1.882812 26.121094 9.429688 33.1875 18.601562 33.1875 C 27.773438 33.1875 35.316406 26.121094 36.042969 17.164062 Z M 23.398438 33.613281 C 21.871094 34.023438 20.261719 34.242188 18.601562 34.242188 C 16.941406 34.242188 15.332031 34.023438 13.800781 33.613281 L 13.800781 34.949219 L 23.398438 34.949219 Z M 1.101562 15.753906 C 1.101562 15.890625 1.582031 16.394531 3.585938 16.9375 C 3.796875 16.328125 4.222656 15.4375 5.039062 14.941406 C 5.636719 14.582031 6.324219 14.496094 7.082031 14.695312 C 8.023438 14.941406 8.667969 15.332031 9.183594 15.648438 C 10.082031 16.195312 10.574219 16.492188 12.054688 15.886719 C 12.460938 15.71875 12.886719 15.527344 13.332031 15.324219 C 15.796875 14.210938 18.863281 12.824219 21.015625 15.03125 C 21.683594 15.714844 22.476562 16.394531 23.316406 16.832031 C 23.359375 16.804688 23.398438 16.773438 23.441406 16.746094 C 23.753906 16.339844 24.066406 15.9375 24.382812 15.535156 C 24.925781 14.832031 25.472656 14.132812 26.019531 13.429688 C 23.71875 13.246094 21.203125 13.152344 18.601562 13.152344 C 13.816406 13.152344 9.320312 13.476562 5.945312 14.058594 C 1.925781 14.757812 1.101562 15.570312 1.101562 15.753906 Z M 14.863281 17.875 C 14.601562 18.019531 14.34375 18.144531 14.089844 18.25 C 15.542969 18.316406 17.058594 18.351562 18.601562 18.351562 C 19.339844 18.351562 20.070312 18.34375 20.796875 18.328125 C 19.710938 17.429688 17.628906 16.34375 14.863281 17.875 Z M 23.960938 18.210938 C 23.804688 18.167969 23.644531 18.113281 23.480469 18.054688 C 23.425781 18.042969 23.367188 18.019531 23.316406 17.988281 C 22.332031 17.578125 21.300781 16.835938 20.257812 15.765625 C 18.625 14.089844 16.15625 15.207031 13.773438 16.285156 C 13.3125 16.492188 12.882812 16.6875 12.457031 16.859375 C 10.480469 17.671875 9.582031 17.128906 8.632812 16.546875 C 8.128906 16.242188 7.605469 15.925781 6.8125 15.714844 C 6.335938 15.589844 5.9375 15.632812 5.585938 15.84375 C 5.085938 16.148438 4.785156 16.75 4.621094 17.1875 C 4.835938 17.234375 5.058594 17.277344 5.292969 17.324219 C 5.359375 17.21875 5.441406 17.121094 5.554688 17.03125 C 6.03125 16.652344 6.78125 16.625 7.84375 16.941406 C 8.007812 16.992188 8.171875 17.042969 8.335938 17.09375 C 10.238281 17.679688 12.039062 18.234375 14.351562 16.953125 C 17.84375 15.019531 20.4375 16.585938 21.671875 17.691406 C 21.910156 17.902344 22.199219 18.097656 22.535156 18.277344 C 23.015625 18.257812 23.492188 18.234375 23.960938 18.210938 Z M 33.664062 16.921875 C 33.441406 16.679688 33.125 16.5 32.71875 16.386719 C 31.097656 15.925781 28.507812 16.625 27.359375 17.53125 C 27.101562 17.734375 26.835938 17.902344 26.554688 18.027344 C 27.34375 17.960938 28.105469 17.882812 28.832031 17.796875 C 29.777344 16.984375 31.257812 15.816406 32.617188 17.179688 C 33.003906 17.09375 33.355469 17.007812 33.664062 16.921875 Z M 27.265625 13.539062 C 26.964844 13.925781 26.664062 14.308594 26.363281 14.695312 C 26.882812 14.332031 27.402344 13.96875 27.921875 13.605469 C 27.703125 13.582031 27.484375 13.558594 27.265625 13.539062 Z M 37.21875 8.371094 C 36.667969 8.757812 36.117188 9.144531 35.566406 9.53125 C 33.960938 10.65625 32.355469 11.78125 30.75 12.90625 C 30.984375 12.945312 31.214844 12.980469 31.4375 13.019531 C 36.566406 13.910156 37.160156 15.003906 37.160156 15.753906 C 37.160156 23.910156 31.828125 30.847656 24.457031 33.296875 L 24.457031 36.003906 L 12.742188 36.003906 L 12.742188 33.296875 C 5.371094 30.847656 0.0429688 23.910156 0.0429688 15.753906 C 0.0429688 15.003906 0.636719 13.910156 5.761719 13.019531 C 9.195312 12.425781 13.757812 12.097656 18.601562 12.097656 C 21.492188 12.097656 24.28125 12.214844 26.789062 12.4375 C 28.929688 9.6875 31.066406 6.9375 33.203125 4.1875 C 33.621094 3.648438 34.367188 4.402344 33.953125 4.933594 C 33.539062 5.464844 33.128906 5.996094 32.714844 6.527344 L 28.027344 12.554688 C 28.433594 12.597656 28.832031 12.644531 29.21875 12.691406 C 31.710938 10.949219 34.195312 9.203125 36.6875 7.457031 C 37.246094 7.066406 37.773438 7.980469 37.21875 8.371094 Z M 22.550781 32.007812 C 23.621094 31.707031 24.648438 31.3125 25.644531 30.828125 C 26.257812 30.527344 25.71875 29.617188 25.109375 29.914062 C 24.195312 30.359375 23.25 30.714844 22.273438 30.988281 C 21.617188 31.171875 21.894531 32.191406 22.550781 32.007812 Z M 28.253906 29.210938 C 27.710938 29.625 27.183594 28.707031 27.71875 28.300781 C 30.160156 26.425781 32.015625 23.871094 33.046875 20.980469 C 33.273438 20.34375 34.296875 20.617188 34.070312 21.261719 C 32.9375 24.4375 30.929688 27.15625 28.253906 29.210938 " fill-opacity="1" fill-rule="nonzero"/></g></svg>