<svg xmlns="http://www.w3.org/2000/svg" xmlns:xlink="http://www.w3.org/1999/xlink" width="50" zoomAndPan="magnify" viewBox="0 0 37.5 37.499999" height="50" preserveAspectRatio="xMidYMid meet" version="1.0"><defs><clipPath id="1509a9a89d"><path d="M 1.773438 0 L 35.519531 0 L 35.519531 37.007812 L 1.773438 37.007812 Z M 1.773438 0 " clip-rule="nonzero"/></clipPath></defs><g clip-path="url(#1509a9a89d)"><path fill="#ffffff" d="M 22.15625 33.953125 C 21.5 34.136719 21.21875 33.113281 21.875 32.929688 C 22.757812 32.679688 23.609375 32.359375 24.433594 31.953125 C 25.042969 31.652344 25.578125 32.566406 24.96875 32.867188 C 24.0625 33.316406 23.125 33.679688 22.15625 33.953125 Z M 27.332031 31.390625 C 26.796875 31.808594 26.269531 30.886719 26.800781 30.472656 C 29.003906 28.765625 30.675781 26.441406 31.609375 23.800781 C 31.835938 23.164062 32.855469 23.441406 32.628906 24.085938 C 31.59375 27.007812 29.773438 29.496094 27.332031 31.390625 Z M 16.097656 20.050781 C 15.417969 20.050781 15.417969 18.988281 16.097656 18.988281 C 16.777344 18.988281 16.777344 20.050781 16.097656 20.050781 Z M 29.101562 19.617188 C 28.421875 19.617188 28.421875 18.554688 29.101562 18.554688 C 29.78125 18.554688 29.78125 19.617188 29.101562 19.617188 Z M 25.273438 16.476562 C 24.59375 16.476562 24.59375 15.414062 25.273438 15.414062 C 25.953125 15.414062 25.949219 16.476562 25.273438 16.476562 Z M 20.25 17.492188 C 19.566406 17.492188 19.570312 16.429688 20.25 16.429688 C 20.929688 16.429688 20.925781 17.492188 20.25 17.492188 Z M 8.726562 18.664062 C 8.046875 18.664062 8.050781 17.601562 8.726562 17.601562 C 9.410156 17.601562 9.40625 18.664062 8.726562 18.664062 Z M 13.222656 15.917969 C 12.542969 15.917969 12.542969 14.859375 13.222656 14.859375 C 13.902344 14.859375 13.902344 15.917969 13.222656 15.917969 Z M 21.640625 0.152344 C 22.128906 -0.324219 22.875 0.425781 22.386719 0.902344 C 22.054688 1.226562 21.800781 1.679688 21.734375 2.140625 C 21.566406 3.285156 22.722656 3.863281 23.128906 4.804688 C 23.636719 5.988281 23.238281 7.371094 22.386719 8.289062 C 21.921875 8.792969 21.179688 8.039062 21.640625 7.539062 C 21.957031 7.199219 22.195312 6.730469 22.277344 6.273438 C 22.5 5.066406 21.433594 4.527344 20.957031 3.578125 C 20.378906 2.425781 20.738281 1.03125 21.640625 0.152344 Z M 18.269531 0.152344 C 18.757812 -0.324219 19.503906 0.425781 19.015625 0.902344 C 18.6875 1.226562 18.429688 1.679688 18.363281 2.140625 C 18.199219 3.285156 19.351562 3.863281 19.757812 4.804688 C 20.269531 5.988281 19.867188 7.371094 19.015625 8.289062 C 18.554688 8.792969 17.808594 8.039062 18.269531 7.539062 C 18.585938 7.199219 18.824219 6.730469 18.90625 6.273438 C 19.128906 5.066406 18.0625 4.527344 17.585938 3.578125 C 17.007812 2.425781 17.367188 1.03125 18.269531 0.152344 Z M 14.898438 0.152344 C 15.390625 -0.324219 16.136719 0.425781 15.644531 0.902344 C 15.316406 1.226562 15.0625 1.679688 14.992188 2.140625 C 14.828125 3.285156 15.980469 3.863281 16.386719 4.804688 C 16.898438 5.988281 16.5 7.371094 15.644531 8.289062 C 15.183594 8.792969 14.4375 8.039062 14.898438 7.539062 C 15.214844 7.199219 15.453125 6.730469 15.535156 6.273438 C 15.757812 5.066406 14.691406 4.527344 14.214844 3.578125 C 13.640625 2.425781 13.996094 1.03125 14.898438 0.152344 Z M 18.644531 34.824219 C 10.382812 34.824219 3.578125 28.421875 2.886719 20.289062 C 2.894531 20.292969 2.898438 20.296875 2.90625 20.300781 C 2.929688 20.3125 2.953125 20.324219 2.972656 20.332031 C 3.003906 20.347656 3.035156 20.367188 3.070312 20.382812 C 3.09375 20.390625 3.117188 20.402344 3.140625 20.414062 C 3.175781 20.429688 3.210938 20.445312 3.246094 20.460938 C 3.269531 20.472656 3.296875 20.484375 3.324219 20.496094 C 3.359375 20.511719 3.398438 20.527344 3.4375 20.542969 C 3.464844 20.554688 3.492188 20.566406 3.519531 20.574219 C 3.5625 20.59375 3.605469 20.609375 3.648438 20.625 C 3.675781 20.636719 3.703125 20.644531 3.730469 20.65625 C 3.78125 20.675781 3.835938 20.691406 3.886719 20.710938 C 3.910156 20.71875 3.933594 20.726562 3.957031 20.734375 C 4.039062 20.761719 4.117188 20.789062 4.203125 20.816406 C 4.210938 20.820312 4.222656 20.820312 4.234375 20.824219 C 4.308594 20.847656 4.386719 20.871094 4.464844 20.894531 C 4.492188 20.902344 4.527344 20.910156 4.554688 20.921875 C 4.617188 20.9375 4.679688 20.953125 4.746094 20.972656 C 4.78125 20.984375 4.816406 20.992188 4.855469 21.003906 C 4.917969 21.019531 4.976562 21.035156 5.042969 21.050781 C 5.082031 21.0625 5.125 21.070312 5.167969 21.082031 C 5.230469 21.097656 5.292969 21.113281 5.359375 21.128906 C 5.40625 21.140625 5.449219 21.148438 5.496094 21.160156 C 5.5625 21.175781 5.628906 21.191406 5.699219 21.207031 C 5.746094 21.214844 5.792969 21.226562 5.839844 21.238281 C 5.914062 21.253906 5.992188 21.269531 6.066406 21.285156 C 6.113281 21.292969 6.15625 21.304688 6.203125 21.3125 C 6.289062 21.328125 6.378906 21.347656 6.46875 21.363281 C 6.507812 21.371094 6.546875 21.378906 6.589844 21.386719 C 6.722656 21.410156 6.855469 21.4375 6.996094 21.460938 C 8.609375 21.742188 10.496094 21.960938 12.550781 22.101562 C 12.675781 22.113281 12.800781 22.121094 12.925781 22.128906 C 13.027344 22.132812 13.125 22.140625 13.226562 22.148438 C 13.386719 22.15625 13.546875 22.167969 13.710938 22.175781 C 13.78125 22.179688 13.855469 22.183594 13.929688 22.1875 C 14.128906 22.199219 14.332031 22.207031 14.535156 22.214844 C 14.589844 22.21875 14.640625 22.222656 14.695312 22.222656 C 14.917969 22.234375 15.140625 22.242188 15.367188 22.25 C 15.402344 22.253906 15.4375 22.253906 15.472656 22.253906 C 15.699219 22.261719 15.929688 22.269531 16.160156 22.273438 C 16.191406 22.277344 16.222656 22.277344 16.253906 22.277344 C 16.488281 22.28125 16.726562 22.289062 16.960938 22.292969 C 16.992188 22.292969 17.019531 22.292969 17.046875 22.292969 C 17.292969 22.296875 17.539062 22.300781 17.789062 22.304688 L 17.839844 22.304688 C 18.109375 22.304688 18.375 22.304688 18.644531 22.304688 C 18.917969 22.304688 19.191406 22.304688 19.464844 22.304688 C 23.550781 22.269531 27.371094 21.972656 30.289062 21.460938 C 30.421875 21.4375 30.550781 21.414062 30.675781 21.390625 C 30.683594 21.390625 30.691406 21.386719 30.695312 21.386719 C 30.738281 21.378906 30.777344 21.371094 30.820312 21.363281 C 30.894531 21.351562 30.96875 21.335938 31.039062 21.320312 C 31.054688 21.316406 31.070312 21.316406 31.082031 21.3125 C 31.128906 21.304688 31.175781 21.292969 31.21875 21.285156 C 31.277344 21.273438 31.332031 21.261719 31.386719 21.25 C 31.40625 21.246094 31.429688 21.242188 31.449219 21.234375 C 31.496094 21.226562 31.542969 21.214844 31.585938 21.207031 C 31.628906 21.195312 31.671875 21.1875 31.714844 21.175781 C 31.742188 21.171875 31.769531 21.164062 31.792969 21.160156 C 31.839844 21.148438 31.882812 21.140625 31.925781 21.128906 C 31.960938 21.121094 31.992188 21.113281 32.023438 21.105469 C 32.058594 21.097656 32.089844 21.089844 32.121094 21.082031 C 32.164062 21.070312 32.207031 21.0625 32.246094 21.050781 C 32.269531 21.046875 32.296875 21.039062 32.316406 21.03125 C 32.355469 21.023438 32.390625 21.011719 32.429688 21.003906 C 32.46875 20.992188 32.503906 20.984375 32.542969 20.972656 C 32.558594 20.96875 32.578125 20.964844 32.59375 20.957031 C 32.632812 20.949219 32.667969 20.9375 32.703125 20.929688 C 32.710938 20.925781 32.722656 20.921875 32.730469 20.921875 C 32.761719 20.910156 32.792969 20.902344 32.824219 20.894531 C 32.832031 20.890625 32.84375 20.886719 32.855469 20.882812 C 32.890625 20.875 32.925781 20.863281 32.960938 20.851562 C 32.992188 20.84375 33.023438 20.832031 33.054688 20.824219 C 33.066406 20.820312 33.074219 20.820312 33.085938 20.816406 C 33.089844 20.8125 33.09375 20.8125 33.101562 20.808594 C 33.132812 20.796875 33.167969 20.789062 33.199219 20.777344 C 33.242188 20.765625 33.285156 20.75 33.328125 20.734375 C 33.332031 20.734375 33.335938 20.730469 33.339844 20.730469 C 33.371094 20.722656 33.394531 20.710938 33.425781 20.703125 C 33.464844 20.6875 33.503906 20.675781 33.542969 20.660156 C 33.550781 20.65625 33.558594 20.65625 33.566406 20.652344 C 33.589844 20.644531 33.613281 20.632812 33.636719 20.625 C 33.671875 20.613281 33.710938 20.597656 33.746094 20.582031 L 33.777344 20.570312 C 33.800781 20.5625 33.824219 20.554688 33.847656 20.542969 C 33.875 20.53125 33.90625 20.519531 33.933594 20.507812 C 33.945312 20.503906 33.960938 20.496094 33.972656 20.492188 C 33.996094 20.480469 34.019531 20.472656 34.039062 20.460938 C 34.0625 20.453125 34.082031 20.445312 34.105469 20.433594 C 34.121094 20.425781 34.136719 20.417969 34.15625 20.410156 C 34.175781 20.402344 34.195312 20.390625 34.21875 20.382812 C 34.234375 20.375 34.25 20.367188 34.265625 20.355469 C 34.285156 20.347656 34.304688 20.339844 34.320312 20.328125 C 34.339844 20.320312 34.359375 20.3125 34.378906 20.300781 L 34.402344 20.289062 C 33.707031 28.421875 26.90625 34.824219 18.644531 34.824219 Z M 22.949219 36.4375 L 14.339844 36.4375 L 14.339844 35.324219 C 15.714844 35.691406 17.15625 35.882812 18.644531 35.882812 C 20.132812 35.882812 21.570312 35.691406 22.949219 35.324219 Z M 5.144531 17.734375 C 5.183594 17.734375 5.230469 17.738281 5.28125 17.746094 L 5.960938 17.851562 L 5.886719 17.164062 C 5.859375 16.917969 5.914062 16.714844 6.027344 16.625 C 6.144531 16.53125 6.304688 16.574219 6.390625 16.601562 L 6.828125 16.765625 L 7.039062 16.347656 C 7.261719 15.910156 7.386719 15.863281 7.613281 15.863281 C 7.929688 15.863281 8.074219 15.890625 8.171875 15.960938 C 8.34375 16.09375 8.570312 16.117188 8.765625 16.019531 C 8.898438 15.953125 9.125 15.773438 9.125 15.332031 C 9.125 14.835938 9.527344 14.433594 10.019531 14.433594 C 10.210938 14.433594 10.394531 14.492188 10.550781 14.609375 C 10.726562 14.742188 10.957031 14.761719 11.15625 14.660156 C 11.359375 14.554688 11.496094 14.335938 11.496094 14.105469 C 11.496094 13.609375 11.898438 13.203125 12.390625 13.203125 C 12.738281 13.203125 13.046875 13.402344 13.199219 13.71875 L 14.179688 13.347656 C 14.160156 13.265625 14.148438 13.1875 14.148438 13.109375 C 14.148438 12.613281 14.550781 12.207031 15.042969 12.207031 C 15.335938 12.207031 15.613281 12.355469 15.777344 12.597656 L 16.421875 13.53125 L 16.722656 12.4375 C 16.828125 12.046875 17.183594 11.773438 17.582031 11.773438 C 18.027344 11.773438 18.398438 12.09375 18.464844 12.53125 L 18.523438 12.890625 L 18.878906 12.96875 C 18.902344 12.972656 18.925781 12.980469 18.949219 12.984375 L 19.429688 13.101562 L 19.574219 12.628906 C 19.691406 12.25 20.035156 12 20.429688 12 C 20.835938 12 21.195312 12.277344 21.296875 12.675781 L 21.597656 13.871094 L 22.253906 12.828125 C 22.417969 12.5625 22.699219 12.40625 23.007812 12.40625 C 23.445312 12.40625 23.816406 12.71875 23.890625 13.152344 L 24.058594 14.117188 L 24.769531 13.449219 C 24.933594 13.289062 25.152344 13.203125 25.378906 13.203125 C 25.875 13.203125 26.273438 13.609375 26.273438 14.105469 C 26.273438 14.347656 26.429688 14.5625 26.65625 14.636719 C 26.894531 14.710938 27.15625 14.613281 27.304688 14.398438 C 27.453125 14.179688 27.691406 14.039062 27.949219 14.015625 C 28.445312 13.964844 28.882812 14.328125 28.929688 14.820312 C 28.933594 14.835938 28.933594 14.851562 28.933594 14.867188 L 28.96875 15.960938 L 29.796875 15.277344 C 29.933594 15.164062 30.097656 15.09375 30.273438 15.074219 C 30.761719 15.027344 31.203125 15.386719 31.253906 15.878906 L 31.316406 16.496094 L 31.914062 16.335938 C 31.96875 16.320312 32.015625 16.3125 32.058594 16.308594 C 32.550781 16.257812 32.992188 16.621094 33.039062 17.113281 C 33.050781 17.203125 33.042969 17.292969 33.027344 17.382812 L 32.898438 18.027344 L 33.554688 18.015625 C 34.015625 18.003906 34.417969 18.363281 34.464844 18.824219 C 34.464844 18.851562 34.46875 18.882812 34.46875 18.914062 L 34.460938 18.914062 C 34.425781 19.117188 33.515625 19.839844 29.9375 20.445312 C 27.089844 20.929688 23.386719 21.210938 19.4375 21.242188 C 19.171875 21.246094 18.910156 21.246094 18.644531 21.246094 C 18.386719 21.246094 18.128906 21.246094 17.875 21.242188 C 17.835938 21.242188 17.800781 21.242188 17.765625 21.242188 C 17.535156 21.242188 17.304688 21.238281 17.074219 21.234375 C 17.066406 21.234375 17.058594 21.234375 17.046875 21.234375 C 13.402344 21.171875 10.003906 20.898438 7.347656 20.445312 C 7.125 20.410156 6.914062 20.371094 6.710938 20.332031 C 5.144531 20.03125 4.171875 19.71875 3.589844 19.453125 C 3.632812 19.449219 3.671875 19.445312 3.710938 19.445312 C 3.722656 19.445312 3.730469 19.445312 3.742188 19.445312 L 4.394531 19.453125 L 4.265625 18.8125 C 4.253906 18.753906 4.25 18.691406 4.25 18.632812 C 4.25 18.136719 4.652344 17.734375 5.144531 17.734375 Z M 35.511719 19.082031 C 35.523438 18.960938 35.523438 18.835938 35.511719 18.71875 C 35.429688 17.902344 34.84375 17.238281 34.09375 17.027344 C 34.089844 17.019531 34.089844 17.015625 34.089844 17.007812 C 33.988281 16.003906 33.152344 15.253906 32.171875 15.242188 C 31.859375 14.453125 31.050781 13.933594 30.167969 14.019531 C 30.046875 14.035156 29.925781 14.054688 29.8125 14.089844 C 29.472656 13.351562 28.695312 12.875 27.84375 12.960938 C 27.582031 12.988281 27.332031 13.066406 27.105469 13.191406 C 26.777344 12.570312 26.125 12.144531 25.378906 12.144531 C 25.132812 12.144531 24.894531 12.191406 24.667969 12.277344 C 24.324219 11.710938 23.703125 11.34375 23.007812 11.34375 C 22.621094 11.34375 22.253906 11.457031 21.941406 11.664062 C 21.582031 11.214844 21.03125 10.9375 20.429688 10.9375 C 19.925781 10.9375 19.460938 11.128906 19.109375 11.453125 C 18.75 10.996094 18.199219 10.714844 17.582031 10.714844 C 16.984375 10.714844 16.429688 10.992188 16.070312 11.441406 C 15.765625 11.253906 15.410156 11.148438 15.042969 11.148438 C 14.238281 11.148438 13.542969 11.644531 13.246094 12.347656 C 12.984375 12.214844 12.691406 12.144531 12.390625 12.144531 C 11.542969 12.144531 10.824219 12.6875 10.554688 13.445312 C 10.382812 13.398438 10.203125 13.371094 10.019531 13.371094 C 9.117188 13.371094 8.355469 13.992188 8.132812 14.835938 C 7.957031 14.808594 7.777344 14.800781 7.613281 14.800781 C 6.949219 14.800781 6.570312 15.125 6.304688 15.511719 C 5.964844 15.488281 5.640625 15.582031 5.378906 15.789062 C 5.101562 16.007812 4.925781 16.324219 4.855469 16.695312 C 4.507812 16.746094 4.1875 16.894531 3.925781 17.109375 C 2.972656 17.429688 1.773438 17.964844 1.773438 18.914062 C 1.773438 26.390625 6.601562 32.75 13.285156 35.007812 L 13.285156 37.496094 L 24 37.496094 L 24 35.007812 C 30.636719 32.765625 35.441406 26.484375 35.511719 19.082031 " fill-opacity="1" fill-rule="nonzero"/></g></svg>